<svg width="594" height="570" xmlns="http://www.w3.org/2000/svg" xmlns:xlink="http://www.w3.org/1999/xlink" xml:space="preserve" overflow="hidden"><g transform="translate(-343 -75)"><path d="M457.206 524.1C426.422 524.1 387.636 512.456 352.928 492.785 318.22 512.456 279.536 524.1 248.676 524.1 230.719 524.1 216.302 520.279 205.913 512.738 191.034 501.915 180.799 480.808 176.361 451.698 172.541 423.41 173.626 394.675 179.568 366.755 158.381 347.631 140.645 325.004 127.133 299.867 113.641 273.681 109.485 250.598 115.18 233.184 120.874 215.77 137.779 199.432 164.099 186.198 189.809 173.791 217.465 165.904 245.854 162.885 257.437 136.823 273.431 112.954 293.132 92.3297 313.859 71.3761 334.535 60.322 352.954 60.322 371.372 60.322 392.048 71.3761 412.75 92.3297 432.5 112.928 448.546 136.779 460.181 162.834 488.57 165.853 516.226 173.74 541.936 186.147 568.23 199.381 585.161 215.616 590.856 233.133 596.551 250.65 592.395 273.707 578.876 299.815 565.376 324.976 547.638 347.62 526.442 366.755 532.343 394.681 533.393 423.415 529.546 451.698 525.083 480.808 514.873 501.915 499.969 512.738 489.579 520.279 475.188 524.1 457.206 524.1Z" transform="matrix(1 0 0 1.00311 343 75)"/><path d="M127.904 225.132C116.015 217.184 106.509 206.156 100.404 193.226 94.0936 179.274 93.8624 165.476 99.7112 154.396 104.463 145.88 112.093 139.333 121.234 135.931 117.931 127.227 115.825 118.116 114.975 108.847 93.7601 87.9698 85.0123 61.9125 93.6577 44.7289 96.6632 38.2856 101.486 32.8604 107.534 29.1196 113.581 25.379 120.59 23.4858 127.698 23.6725 134.019 23.7484 140.281 24.893 146.219 27.058 156.09 17.7912 167.754 10.6428 180.492 6.05292 203.642-2.38496 229.093-1.98422 251.967 7.17835 274.84 16.3409 293.527 33.6207 304.445 55.7059 315.102 57.5511 324.777 63.068 331.79 71.2995L337.588 78.3265 329.662 82.7895C303.521 97.5107 275.355 132.929 257.834 173.016L256.038 177.145 251.55 177.582C203.297 182.249 157.584 200.792 137.857 223.747L133.445 228.876 127.904 225.132Z" transform="matrix(1 0 0 1.00311 343 75)"/><path d="M583.572 235.493C573.182 203.51 516.593 175.914 455.001 169.964 430.297 113.233 386.585 67.965 352.954 67.965 343.347 68.3144 333.991 71.1324 325.788 76.1462 329.243 80.3369 331.614 85.3125 332.692 90.6348 333.77 95.9571 333.522 101.463 331.971 106.667 325.532 126.851 298.263 137.649 274.535 126.98 265.288 140.528 257.343 154.92 250.806 169.964 189.239 175.914 132.598 203.51 122.209 235.493 111.82 267.475 141.5 323.155 187.829 364.036 174.438 424.461 183.211 486.783 210.352 506.557 237.492 526.331 299.546 515.355 352.878 483.988 406.21 515.38 468.314 526.331 495.429 506.557 522.544 486.783 531.343 424.486 518.004 364.036 564.358 323.155 593.987 267.475 583.572 235.493Z" fill="#FFEB3F" transform="matrix(1 0 0 1.00311 343 75)"/><path d="M132.136 218.797C146.655 201.895 173.617 187.405 205.554 178.428 200.82 164.761 190.96 153.468 178.054 146.933 153.017 133.699 117.463 137.11 106.458 157.962 96.3506 177.094 110.434 204.229 132.136 218.797Z" fill="#F7006B" transform="matrix(1 0 0 1.00311 343 75)"/><path d="M299.264 62.5791C293.119 48.721 283.66 36.586 271.721 27.2427 259.781 17.8995 245.727 11.6345 230.797 8.99955 215.865 6.36458 200.515 7.44046 186.097 12.1325 171.68 16.8245 158.638 24.9886 148.119 35.906 127.75 27.1604 109.281 30.4945 100.482 48.0371 93.4272 62.1174 101.816 86.2003 122.363 105.333 122.892 114.33 124.724 123.202 127.802 131.672 128.931 134.75 130.213 137.725 131.599 140.623 147.342 137.269 163.762 139.481 178.055 146.882 190.971 153.429 200.833 164.741 205.555 178.428 220.394 174.277 235.571 171.445 250.909 169.964 257.446 154.92 265.391 140.528 274.638 126.98 298.366 137.649 325.635 126.98 332.074 106.667 337.153 90.8165 329.047 66.4775 299.264 62.5791Z" fill="#FFA6C1" transform="matrix(1 0 0 1.00311 343 75)"/><path d="M518.182 364.036C550.3 335.619 574.362 300.226 582.648 270.526L197.884 492.554C201.101 497.98 205.334 502.734 210.351 506.557 237.569 526.306 299.545 515.355 352.877 483.988 376.996 498.37 403.41 508.495 430.964 513.919L519.619 462.752C526.135 435.053 525.879 399.224 518.182 364.036Z" fill="#FFCE00" transform="matrix(1 0 0 1.00311 343 75)"/><path d="M274.637 126.98C265.39 140.528 257.445 154.921 250.908 169.964 189.342 175.914 132.701 203.511 122.312 235.493L132.034 238.519C136.138 226.054 150.683 212.872 171.975 202.048 197.077 189.996 224.145 182.559 251.883 180.095L257.834 179.531 260.246 174.042C266.917 158.653 275.124 143.977 284.744 130.236 281.266 129.524 277.876 128.431 274.637 126.98Z" fill="#FFFFFF" transform="matrix(1 0 0 1.00311 343 75)"/><path d="M352.954 67.965C343.347 68.3178 333.992 71.1352 325.788 76.1462 327.95 78.791 329.682 81.7596 330.919 84.9434 337.518 80.8801 345.035 78.5424 352.775 78.1469 363.626 78.1469 377.196 84.738 391.023 96.5616L393.101 85.0973C379.454 74.3767 365.499 67.965 352.954 67.965Z" fill="#FFFFFF" transform="matrix(1 0 0 1.00311 343 75)"/><path d="M448.048 179.53 454.025 180.095C481.763 182.563 508.83 189.999 533.933 202.048 553.481 211.897 567.282 223.9 572.668 235.39L582.314 232.287C569.334 201.664 514.488 175.863 454.949 169.964L448.048 179.53Z" fill="#FFFFFF" transform="matrix(1 0 0 1.00311 343 75)"/><path d="M124.928 77.9679C109.383 68.8117 100.533 56.2703 103.201 43.2158 102.366 44.4118 101.628 45.6725 100.995 46.986 92.1188 65.3237 105.329 89.5345 122.363 105.154 121.865 96.0149 122.73 86.8528 124.928 77.9679Z" fill="#FF68A1" transform="matrix(1 0 0 1.00311 343 75)"/><path d="M131.598 140.675C138.92 139.04 146.467 138.667 153.916 139.572 145.391 133.391 138.25 125.499 132.95 116.402 127.649 107.304 124.305 97.2015 123.132 86.7393 120.918 101.885 122.505 117.344 127.75 131.724 128.93 134.802 130.212 137.777 131.598 140.675Z" fill="#FF68A1" transform="matrix(1 0 0 1.00311 343 75)"/><path d="M274.253 126.8C264.031 137.324 251.56 145.399 237.774 150.421 222.351 156.083 205.707 157.577 189.522 154.755 196.909 161.046 202.442 169.23 205.529 178.428 220.377 174.279 235.562 171.447 250.908 169.964 257.446 154.921 265.391 140.528 274.637 126.98L274.253 126.8Z" fill="#FF68A1" transform="matrix(1 0 0 1.00311 343 75)"/><path d="M270.763 125.03C259.425 119.592 265.889 109.641 271.174 112.206 286.694 119.696 308.627 113.822 319.657 103.025 329.2 93.689 329.431 78.1211 316.835 68.4009 323.342 72.1567 328.39 77.9992 331.16 84.9817 333.93 91.9648 334.261 99.6778 332.099 106.872 325.275 127.954 295.287 138.828 270.763 125.03Z" fill="#FF68A1" transform="matrix(1 0 0 1.00311 343 75)"/><path d="M132.137 218.796C144.04 204.947 164.305 192.713 188.804 183.813 183.793 177.26 177.399 171.892 170.077 168.092 148.478 156.679 119.978 158.73 111.589 174.606 107.561 182.3 108.69 192.815 115.18 202.818 119.945 209.013 125.669 214.408 132.137 218.796Z" fill="#AC0052" transform="matrix(1 0 0 1.00311 343 75)"/><path d="M586.778 234.441C576.337 202.33 520.876 173.452 457.283 166.706 431.348 108.308 386.688 64.4771 352.954 64.4771 342.564 64.9168 332.467 68.0548 323.659 73.5815 325.239 75.1448 326.657 76.8635 327.891 78.7116 335.482 74.1441 344.102 71.5683 352.954 71.2222 384.482 71.2222 427.09 114.207 451.922 171.246L452.717 173.067 454.667 173.247C516.567 179.223 570.617 206.408 580.364 236.441 590.113 266.474 562.408 320.231 515.797 361.446L514.309 362.754 514.745 364.703C528.187 425.41 519.055 485.245 493.48 503.762 467.903 522.279 408.21 512.559 354.621 481.013L352.903 479.988 351.21 480.987C297.596 512.534 237.928 522.305 212.353 503.762 186.776 485.219 177.67 425.487 191.112 364.78L191.548 362.831 190.06 361.523C143.501 320.308 115.668 266.628 125.518 236.519 135.369 206.408 189.316 179.3 251.216 173.324L253.191 173.144 253.961 171.323C260.504 156.235 268.475 141.807 277.766 128.236 275.649 127.453 273.592 126.519 271.61 125.441 262.691 138.503 254.965 152.34 248.523 166.784 185.032 173.452 129.546 202.33 119.105 234.441 108.664 266.551 136.575 322.539 184.109 365.242 170.769 427.744 181.107 489.425 208.427 509.277 216.123 514.919 226.744 518.201 239.211 519.279 270.429 522.023 313.372 510.789 352.98 487.886 408.313 519.894 470.187 529.127 497.532 509.277 524.878 489.425 535.165 427.744 521.8 365.242 569.308 322.513 597.219 266.551 586.778 234.441Z" transform="matrix(1 0 0 1.00311 343 75)"/><path d="M148.067 119.798C149.863 124.671 157.789 126.236 165.793 123.286 173.796 120.337 178.85 114.027 177.054 109.129 175.259 104.23 167.306 102.589 159.303 105.641 151.299 108.693 146.22 114.925 148.067 119.798Z" fill="#FF74A6" transform="matrix(1 0 0 1.00311 343 75)"/><path d="M249.394 82.8404C251.165 87.7135 259.091 89.3291 267.095 86.4315 275.099 83.5333 280.203 77.2242 278.434 72.3252 276.663 67.4267 268.737 65.8366 260.708 68.7347 252.678 71.6331 247.624 77.9421 249.394 82.8404Z" fill="#FF74A6" transform="matrix(1 0 0 1.00311 343 75)"/><path d="M217.586 108.82C219.738 108.14 221.716 107.001 223.386 105.482 225.055 103.964 226.376 102.101 227.256 100.024 227.356 99.721 227.334 99.3909 227.195 99.104 227.056 98.8171 226.812 98.595 226.512 98.4849 226.363 98.4285 226.203 98.4034 226.044 98.4104 225.884 98.4174 225.728 98.4571 225.584 98.5267 225.439 98.5963 225.311 98.6945 225.206 98.815 225.102 98.9355 225.022 99.0761 224.973 99.2286 223.296 102.671 220.347 105.328 216.748 106.639 213.149 107.95 209.182 107.813 205.683 106.256 205.406 106.094 205.077 106.046 204.766 106.123 204.454 106.199 204.185 106.394 204.015 106.667 203.933 106.804 203.878 106.957 203.856 107.116 203.833 107.274 203.842 107.436 203.883 107.591 203.923 107.747 203.995 107.892 204.092 108.02 204.19 108.147 204.312 108.254 204.452 108.334 206.473 109.361 208.691 109.944 210.957 110.04 213.223 110.138 215.483 109.748 217.586 108.898L217.586 108.82Z" transform="matrix(1 0 0 1.00311 343 75)"/><path d="M173.642 52.5768C164.536 55.8853 169.204 72.9408 172.796 82.8146 176.387 92.6891 183.749 108.77 192.856 105.461 201.963 102.153 197.294 85.0973 193.703 75.2235 190.111 65.3491 182.749 49.2683 173.642 52.5768Z" transform="matrix(1 0 0 1.00311 343 75)"/><path d="M178.85 87.8925C179.935 88.9217 181.284 89.6285 182.747 89.9342 184.21 90.24 185.73 90.1327 187.136 89.6244 188.541 89.116 189.778 88.2268 190.707 87.0555 191.636 85.8849 192.22 84.4782 192.395 82.9943 195.345 93.4321 194.96 100.408 191.574 101.691 188.188 102.973 183.314 97.7927 178.85 87.8925Z" fill="#004DD2" transform="matrix(1 0 0 1.00311 343 75)"/><path d="M184.16 63.8613C186.237 69.555 185.981 74.8642 182.236 76.2235 178.49 77.5828 174.899 73.6588 172.821 67.9905 170.743 62.3225 171 56.9879 174.745 55.6286 178.49 54.2692 182.133 58.1676 184.16 63.8613Z" fill="#FFFFFF" transform="matrix(1 0 0 1.00311 343 75)"/><path d="M216.175 37.137C207.068 40.4455 211.737 57.5009 215.302 67.3751 218.868 77.2492 226.282 93.3297 235.388 90.0213 244.495 86.7129 239.826 69.6575 236.235 59.7836 232.643 49.9094 225.256 33.8285 216.175 37.137Z" transform="matrix(1 0 0 1.00311 343 75)"/><path d="M234.003 86.2261C230.514 87.5081 225.82 82.3271 221.382 72.4276 222.464 73.4429 223.805 74.1393 225.258 74.4394 226.71 74.7389 228.218 74.6302 229.613 74.126 231.008 73.6212 232.236 72.7396 233.16 71.5801 234.085 70.42 234.67 69.0267 234.85 67.5546 237.775 77.993 237.518 84.9692 234.003 86.2261Z" fill="#004DD2" transform="matrix(1 0 0 1.00311 343 75)"/><path d="M215.481 52.5255C217.534 58.2192 221.125 62.1432 224.87 60.784 228.615 59.4247 228.872 54.09 226.795 48.422 224.717 42.7539 221.15 38.8043 217.405 40.1636 213.66 41.5229 213.275 46.8575 215.481 52.5255Z" fill="#FFFFFF" transform="matrix(1 0 0 1.00311 343 75)"/><path d="M297.185 63.2462C297.313 63.6386 297.549 63.9868 297.867 64.2501 298.185 64.5135 298.571 64.6812 298.98 64.7337 314.68 66.7855 322.581 74.4798 326.429 80.5584 328.809 84.2972 330.36 88.5018 330.98 92.8903 331.599 97.2788 331.272 101.749 330.02 106 328.367 110.619 325.707 114.812 322.234 118.276 318.759 121.741 314.558 124.389 309.934 126.03 300.294 129.74 289.66 129.967 279.869 126.672 275.996 125.389 270.096 122.132 268.865 123.953 267.634 125.774 272.276 128.365 274.97 129.493 286.226 134.299 298.886 134.657 310.396 130.493L311.525 130.083C316.75 128.202 321.491 125.184 325.404 121.244 329.318 117.305 332.305 112.545 334.15 107.308 335.622 102.456 336.021 97.3422 335.322 92.3207 334.622 87.2992 332.839 82.4894 330.098 78.2242 325.839 71.53 317.271 63.1436 300.751 60.6302 294.381 46.7324 284.738 34.5847 272.647 25.2269 260.556 15.8691 246.377 9.5799 231.324 6.89759 216.27 4.21529 200.792 5.21981 186.211 9.82516 171.631 14.4305 158.384 22.4996 147.604 33.3416 137.087 29.0585 127.083 27.93 118.489 30.2382 114.141 31.4285 110.104 33.5497 106.658 36.4549 103.212 39.36 100.439 42.9796 98.5309 47.0628 94.1702 55.8085 95.196 68.1961 101.378 81.0709 106.092 90.5568 112.49 99.1075 120.259 106.308 120.822 115.242 122.652 124.05 125.698 132.468 126.544 134.776 127.442 137.007 128.442 139.213 117.411 142.368 108.869 148.6 104.457 156.961 98.9417 167.399 99.7627 180.582 106.791 194.047 112.494 204.733 120.751 213.843 130.828 220.566 131.726 219.437 132.675 218.335 133.675 217.232 124.074 210.9 116.208 202.268 110.793 192.123 104.457 179.941 103.61 168.195 108.459 159.064 113.256 149.985 123.85 143.676 137.369 141.906 150.969 140.105 164.796 142.494 177.002 148.754 188.278 154.509 197.195 164.014 202.219 175.632 202.655 176.735 203.066 177.812 203.424 178.915 204.784 178.53 206.195 178.12 207.606 177.761 207.209 176.481 206.747 175.223 206.221 173.99 200.824 161.425 191.206 151.137 179.029 144.907 165.995 138.155 151.21 135.542 136.651 137.418 135.343 137.598 134.086 137.828 132.777 138.084 131.751 135.931 130.828 133.366 129.853 130.98 124.381 116.103 122.948 100.042 125.698 84.4309 126.39 80.5326 127.288 74.5306 125.851 74.172 124.415 73.8127 121.798 79.5062 120.567 89.2783 120.136 92.8527 119.922 96.4494 119.925 100.05 102.61 81.9177 96.4787 60.9123 102.431 49.0633 104.035 45.5097 106.41 42.3571 109.382 39.8332 112.354 37.3095 115.85 35.4775 119.618 34.47 127.918 32.6568 136.576 33.4633 144.398 36.7783 142.474 38.9839 139.909 43.4209 140.986 44.2673 142.063 45.1136 147.194 40.0098 149.836 37.2912 160.113 26.6973 172.828 18.7811 186.871 14.2346 200.913 9.68819 215.857 8.64991 230.393 11.2105 244.931 13.7711 258.619 19.8527 270.262 28.9237 281.906 37.9946 291.149 49.7788 297.185 63.2462Z" transform="matrix(1 0 0 1.00311 343 75)"/><path d="M23.9596 545.951C20.7786 546.285 16.2638 542.413 13.2624 537.257 7.33663 537.257 1.66743 535.257 0.436105 532.308-0.795222 529.358 1.41091 523.792 5.41271 519.483 3.54007 513.867 3.74529 507.84 6.13099 505.711 8.51669 503.582 14.5451 503.967 19.9321 506.429 24.6778 502.915 30.4753 501.3 33.2458 502.865 36.0163 504.429 37.4785 510.327 36.8115 516.201 41.6342 519.663 44.9947 524.638 44.3277 527.793 43.6608 530.948 38.5303 534.103 32.7327 535.282 30.7831 540.874 27.1661 545.618 23.9596 545.951Z" transform="matrix(1 0 0 1.00311 343 75)"/><path d="M30.7833 480.166C29.9625 476.32 34.0669 470.215 39.9414 465.984 39.1205 458.803 40.8648 451.647 44.2767 449.673 47.6885 447.698 54.7685 449.672 60.5917 453.981 67.1845 450.955 74.5467 450.416 77.4714 453.058 80.3954 455.7 80.6775 463.034 78.3948 469.908 83.3202 475.242 86.0903 482.065 84.4998 485.655 82.9093 489.246 75.9833 491.81 68.7493 491.76 65.2092 498.069 59.5656 502.839 55.6407 502.429 51.7159 502.018 47.1754 496.248 44.9949 489.323 37.7609 487.912 31.5016 484.014 30.7833 480.166Z" transform="matrix(1 0 0 1.00311 343 75)"/><path d="M117.027 471.061C122.285 472.55 131.11 467.394 137.549 459.597 147.451 461.393 157.533 459.597 160.636 455.033 163.74 450.467 161.508 440.49 156.07 431.95 160.816 423.076 162.201 412.946 158.815 408.662 155.429 404.379 145.244 403.353 135.523 405.918 128.571 398.634 119.361 394.197 114.23 396.095 109.1 397.993 104.97 407.354 104.405 417.382 95.3506 421.768 88.2699 429.154 88.5011 434.617 88.7316 440.08 96.3506 446.877 105.714 450.519 106.919 460.572 111.768 469.574 117.027 471.061Z" transform="matrix(1 0 0 1.00311 343 75)"/><path d="M82.2422 519.432C81.3696 514.995 86.2184 508.071 93.0414 503.377 92.2469 495.119 94.4272 486.963 98.3777 484.783 102.328 482.603 110.409 485.04 117.001 490.092 124.697 486.783 133.034 486.347 136.344 489.425 139.653 492.503 139.781 500.915 137.011 508.763 142.526 514.969 145.553 522.843 143.655 526.921 141.756 530.999 133.752 533.769 125.467 533.564 121.234 540.72 114.693 546.029 110.203 545.49 105.714 544.951 100.66 538.206 98.3004 530.23 90.194 528.332 83.0883 523.844 82.2422 519.432Z" transform="matrix(1 0 0 1.00311 343 75)"/><path d="M493.505 503.839C467.853 522.408 408.236 512.636 354.648 481.09L352.929 480.064 351.236 481.064C297.622 512.61 237.954 522.382 212.378 503.839 186.802 485.296 177.67 425.487 191.112 364.78L191.548 362.831 190.061 361.523C143.886 320.487 116.129 267.321 125.339 237.134 106.202 248.932 93.735 262.576 89.015 277.118 83.3202 294.609 87.4754 317.692 100.969 343.801 114.473 368.966 132.21 391.618 153.403 410.765 147.507 438.685 146.465 467.41 150.324 495.684 154.762 524.793 164.998 545.901 179.876 556.724 190.137 564.264 204.657 568.085 222.639 568.085 253.422 568.085 292.183 556.442 326.892 536.77 361.702 556.544 400.181 568.085 431.169 568.085 449.126 568.085 463.543 564.264 473.933 556.724 488.836 545.901 499.046 524.793 503.51 495.684L503.894 492.785C501.091 497.038 497.576 500.778 493.505 503.839Z" transform="matrix(1 0 0 1.00311 343 75)"/><path d="M321.401 539.796C308.264 527.434 293.072 517.453 276.509 510.302 249.472 515.559 226.051 513.764 212.378 503.839 208.297 500.759 204.775 497.003 201.963 492.733 184.695 491.696 167.365 492.747 150.35 495.863 154.813 524.87 165.023 545.926 179.876 556.724 190.137 564.264 204.656 568.085 222.639 568.085 251.882 568.085 288.155 557.621 321.401 539.796Z" fill="#000C84" transform="matrix(1 0 0 1.00311 343 75)"/><path d="M98.3011 530.23C100.661 538.206 105.74 544.926 110.204 545.49 114.668 546.054 121.234 540.72 125.467 533.564 133.753 533.769 141.731 530.999 143.655 526.921 145.579 522.843 142.527 514.969 137.011 508.763 138.212 505.418 138.87 501.903 138.96 498.351 119.377 502.984 100.915 511.477 84.6537 523.331 88.4886 526.831 93.2079 529.217 98.3011 530.23Z" fill="#000C84" transform="matrix(1 0 0 1.00311 343 75)"/><path d="M170.77 461.367C175.573 461.367 179.466 457.475 179.466 452.673 179.466 447.871 175.573 443.978 170.77 443.978 165.967 443.978 162.074 447.871 162.074 452.673 162.074 457.475 165.967 461.367 170.77 461.367Z" fill="#000C84" transform="matrix(1 0 0 1.00311 343 75)"/><path d="M384.738 529.973C389.541 529.973 393.434 526.081 393.434 521.279 393.434 516.477 389.541 512.584 384.738 512.584 379.935 512.584 376.042 516.477 376.042 521.279 376.042 526.081 379.935 529.973 384.738 529.973Z" fill="#000C84" transform="matrix(1 0 0 1.00311 343 75)"/><path d="M236.62 532.615C213.033 530.213 189.235 534.227 167.743 544.234 171.094 549.018 175.19 553.235 179.876 556.724 190.137 564.264 204.656 568.085 222.639 568.085 244.572 568.085 270.481 562.187 296.083 551.722 278.038 540.772 257.666 534.226 236.62 532.615Z" fill="#0018A2" transform="matrix(1 0 0 1.00311 343 75)"/><path d="M175.156 504.762C177.848 504.762 180.031 502.58 180.031 499.89 180.031 497.198 177.848 495.016 175.156 495.016 172.465 495.016 170.282 497.198 170.282 499.89 170.282 502.58 172.465 504.762 175.156 504.762Z" fill="#0018A2" transform="matrix(1 0 0 1.00311 343 75)"/><path d="M139.345 436.798C142.036 436.798 144.219 434.616 144.219 431.924 144.219 429.233 142.036 427.051 139.345 427.051 136.653 427.051 134.471 429.233 134.471 431.924 134.471 434.616 136.653 436.798 139.345 436.798Z" fill="#0018A2" transform="matrix(1 0 0 1.00311 343 75)"/><path d="M460.106 563.776C441.547 549.199 419.091 540.436 395.564 538.591 377.769 536.978 359.837 539.28 343.027 545.336 373.246 559.852 405.004 568.214 431.169 568.214 440.995 568.36 450.776 566.861 460.106 563.776Z" fill="#4D0A8E" transform="matrix(1 0 0 1.00311 343 75)"/><path d="M100.968 343.877C111.16 363.041 123.925 380.723 138.908 396.428 140.217 385.298 134.727 370.499 123.517 357.778 116.907 350.044 108.543 344.002 99.1214 340.159 99.7112 341.39 100.327 342.621 100.968 343.877Z" fill="#4D0A8E" transform="matrix(1 0 0 1.00311 343 75)"/><path d="M114.077 396.172C110.383 397.532 107.228 402.789 105.509 409.355 116.232 414.177 126.544 414.279 133.009 408.586 133.885 407.818 134.676 406.958 135.369 406.021 128.417 398.711 119.207 394.274 114.077 396.172Z" fill="#4D0A8E" transform="matrix(1 0 0 1.00311 343 75)"/><path d="M193.112 555.852C197.915 555.852 201.808 551.959 201.808 547.157 201.808 542.355 197.915 538.463 193.112 538.463 188.309 538.463 184.416 542.355 184.416 547.157 184.416 551.959 188.309 555.852 193.112 555.852Z" fill="#002CCF" transform="matrix(1 0 0 1.00311 343 75)"/><path d="M130.161 370.91C134.964 370.91 138.857 367.017 138.857 362.215 138.857 357.414 134.964 353.521 130.161 353.521 125.358 353.521 121.465 357.414 121.465 362.215 121.465 367.017 125.358 370.91 130.161 370.91Z" fill="#002CCF" transform="matrix(1 0 0 1.00311 343 75)"/><path d="M283.41 552.031C288.213 552.031 292.107 548.138 292.107 543.336 292.107 538.534 288.213 534.642 283.41 534.642 278.608 534.642 274.714 538.534 274.714 543.336 274.714 548.138 278.608 552.031 283.41 552.031Z" fill="#002CCF" transform="matrix(1 0 0 1.00311 343 75)"/><path d="M231.489 547.337C232.751 547.337 233.773 546.315 233.773 545.054 233.773 543.793 232.751 542.772 231.489 542.772 230.228 542.772 229.206 543.793 229.206 545.054 229.206 546.315 230.228 547.337 231.489 547.337Z" fill="#FFFFFF" transform="matrix(1 0 0 1.00311 343 75)"/><path d="M317.117 523.1C318.378 523.1 319.4 522.078 319.4 520.818 319.4 519.556 318.378 518.535 317.117 518.535 315.856 518.535 314.834 519.556 314.834 520.818 314.834 522.078 315.856 523.1 317.117 523.1Z" fill="#FFFFFF" transform="matrix(1 0 0 1.00311 343 75)"/><path d="M410.416 544.105C411.678 544.105 412.7 543.083 412.7 541.823 412.7 540.562 411.678 539.54 410.416 539.54 409.156 539.54 408.134 540.562 408.134 541.823 408.134 543.083 409.156 544.105 410.416 544.105Z" fill="#FFFFFF" transform="matrix(1 0 0 1.00311 343 75)"/><path d="M215.738 527.23C217.084 527.23 218.176 526.138 218.176 524.793 218.176 523.448 217.084 522.357 215.738 522.357 214.392 522.357 213.302 523.448 213.302 524.793 213.302 526.138 214.392 527.23 215.738 527.23Z" fill="#FFFFFF" transform="matrix(1 0 0 1.00311 343 75)"/><path d="M159.739 389.145C161.741 388.635 163.562 387.578 164.999 386.093 166.435 384.607 167.429 382.751 167.87 380.732 168.378 382.737 169.438 384.56 170.93 385.993 172.422 387.425 174.286 388.411 176.31 388.837 174.302 389.342 172.476 390.397 171.034 391.883 169.594 393.369 168.596 395.227 168.152 397.25 167.644 395.249 166.587 393.431 165.101 391.998 163.614 390.566 161.757 389.578 159.739 389.145Z" fill="#FFFFFF" transform="matrix(1 0 0 1.00311 343 75)"/><path d="M157.045 370.064C158.391 370.064 159.482 368.973 159.482 367.628 159.482 366.281 158.391 365.191 157.045 365.191 155.699 365.191 154.608 366.281 154.608 367.628 154.608 368.973 155.699 370.064 157.045 370.064Z" fill="#FFFFFF" transform="matrix(1 0 0 1.00311 343 75)"/><path d="M127.545 522.151C128.891 522.151 129.982 521.061 129.982 519.715 129.982 518.369 128.891 517.279 127.545 517.279 126.199 517.279 125.108 518.369 125.108 519.715 125.108 521.061 126.199 522.151 127.545 522.151Z" fill="#FFFFFF" transform="matrix(1 0 0 1.00311 343 75)"/><path d="M127.16 329.823C128.506 329.823 129.597 328.732 129.597 327.387 129.597 326.041 128.506 324.95 127.16 324.95 125.814 324.95 124.723 326.041 124.723 327.387 124.723 328.732 125.814 329.823 127.16 329.823Z" fill="#FFFFFF" transform="matrix(1 0 0 1.00311 343 75)"/><path d="M141.525 338.902C142.871 338.902 143.962 337.811 143.962 336.465 143.962 335.12 142.871 334.029 141.525 334.029 140.179 334.029 139.088 335.12 139.088 336.465 139.088 337.811 140.179 338.902 141.525 338.902Z" fill="#FFFFFF" transform="matrix(1 0 0 1.00311 343 75)"/><path d="M175.156 502.326C176.502 502.326 177.593 501.235 177.593 499.889 177.593 498.544 176.502 497.452 175.156 497.452 173.81 497.452 172.719 498.544 172.719 499.889 172.719 501.235 173.81 502.326 175.156 502.326Z" fill="#FFFFFF" transform="matrix(1 0 0 1.00311 343 75)"/><path d="M193.113 551.517C195.521 551.517 197.474 549.565 197.474 547.157 197.474 544.749 195.521 542.797 193.113 542.797 190.705 542.797 188.752 544.749 188.752 547.157 188.752 549.565 190.705 551.517 193.113 551.517Z" fill="#FFFFFF" transform="matrix(1 0 0 1.00311 343 75)"/><path d="M170.769 457.033C173.178 457.033 175.13 455.081 175.13 452.673 175.13 450.265 173.178 448.313 170.769 448.313 168.361 448.313 166.408 450.265 166.408 452.673 166.408 455.081 168.361 457.033 170.769 457.033Z" fill="#FFFFFF" transform="matrix(1 0 0 1.00311 343 75)"/><path d="M384.738 525.639C387.147 525.639 389.099 523.687 389.099 521.279 389.099 518.871 387.147 516.919 384.738 516.919 382.329 516.919 380.377 518.871 380.377 521.279 380.377 523.687 382.329 525.639 384.738 525.639Z" fill="#FFFFFF" transform="matrix(1 0 0 1.00311 343 75)"/><path d="M130.161 366.575C132.569 366.575 134.522 364.623 134.522 362.215 134.522 359.807 132.569 357.855 130.161 357.855 127.752 357.855 125.8 359.807 125.8 362.215 125.8 364.623 127.752 366.575 130.161 366.575Z" fill="#FFFFFF" transform="matrix(1 0 0 1.00311 343 75)"/><path d="M283.41 547.696C285.818 547.696 287.771 545.744 287.771 543.336 287.771 540.928 285.818 538.976 283.41 538.976 281.001 538.976 279.049 540.928 279.049 543.336 279.049 545.744 281.001 547.696 283.41 547.696Z" fill="#FFFFFF" transform="matrix(1 0 0 1.00311 343 75)"/><path d="M139.344 434.361C140.69 434.361 141.781 433.27 141.781 431.924 141.781 430.579 140.69 429.488 139.344 429.488 137.998 429.488 136.908 430.579 136.908 431.924 136.908 433.27 137.998 434.361 139.344 434.361Z" fill="#FFFFFF" transform="matrix(1 0 0 1.00311 343 75)"/></g></svg>